<mxfile host="app.diagrams.net" modified="2023-09-02T06:16:23.640Z" agent="Mozilla/5.0 (Macintosh; Intel Mac OS X 10_15_7) AppleWebKit/537.36 (KHTML, like Gecko) Chrome/116.0.0.0 Safari/537.36" version="21.2.9" etag="HODpmwJ2fq097OkYrJPa" type="github">
  <diagram name="第 1 页" id="QTAsjR65V7fDov5XbZmy">
    <mxGraphModel>
      <root>
        <mxCell id="0" />
        <mxCell id="1" parent="0" />
      </root>
    </mxGraphModel>
  </diagram>
</mxfile>
